<?xml version="1.0" encoding="UTF-8" standalone="no"?>
<!-- Created with Inkscape (http://www.inkscape.org/) -->

<svg
   width="192"
   height="192"
   viewBox="0 0 50.800001 50.8"
   version="1.1"
   id="svg1"
   xml:space="preserve"
   sodipodi:docname="kat_hit.svg"
   inkscape:version="1.4.3 (0d15f75042, 2025-12-25)"
   xmlns:inkscape="http://www.inkscape.org/namespaces/inkscape"
   xmlns:sodipodi="http://sodipodi.sourceforge.net/DTD/sodipodi-0.dtd"
   xmlns="http://www.w3.org/2000/svg"
   xmlns:svg="http://www.w3.org/2000/svg"><sodipodi:namedview
     id="namedview1"
     pagecolor="#505050"
     bordercolor="#eeeeee"
     borderopacity="1"
     inkscape:showpageshadow="0"
     inkscape:pageopacity="0"
     inkscape:pagecheckerboard="0"
     inkscape:deskcolor="#505050"
     inkscape:document-units="mm"
     showgrid="true"
     inkscape:zoom="2"
     inkscape:cx="-159.25"
     inkscape:cy="-28.5"
     inkscape:window-width="1920"
     inkscape:window-height="988"
     inkscape:window-x="0"
     inkscape:window-y="0"
     inkscape:window-maximized="1"
     inkscape:current-layer="layer1"><inkscape:grid
       id="grid1"
       units="px"
       originx="0"
       originy="0"
       spacingx="0.26458334"
       spacingy="0.26458334"
       empcolor="#0099e5"
       empopacity="0.30196078"
       color="#0099e5"
       opacity="0.14901961"
       empspacing="1"
       enabled="true"
       visible="true" /></sodipodi:namedview><defs
     id="defs1" /><g
     inkscape:label="Layer 1"
     inkscape:groupmode="layer"
     id="layer1"
     style="display:inline"><path
       id="path31"
       style="display:inline;fill:#246466;fill-opacity:1;stroke:#1d4445;stroke-width:0.263605;stroke-dasharray:none;stroke-opacity:1"
       d="M 25.400001,3.9687502 A 18.794697,17.442139 0 0 0 6.6414561,21.410534 18.794697,17.442139 0 0 0 25.400001,38.852831 v -3.65527 A 17.721972,15.358758 0 0 1 7.6780853,19.83886 17.721972,15.358758 0 0 1 25.400001,4.4801598 Z" /><path
       id="path32"
       style="display:inline;fill:#266768;fill-opacity:1;stroke:#204b4b;stroke-width:0.264583;stroke-dasharray:none;stroke-opacity:1"
       d="M 25.400001,4.224455 A 17.721972,15.473015 0 0 0 7.6780853,19.697411 17.721972,15.473015 0 0 0 25.400001,35.170369 V 31.994852 A 14.006763,12.429719 0 0 1 11.393104,19.56512 14.006763,12.429719 0 0 1 25.400001,7.1353884 Z" /><path
       id="path29"
       style="display:inline;fill:#63c4c6;fill-opacity:1;stroke:#368081;stroke-width:0.263605;stroke-dasharray:none;stroke-opacity:1"
       d="M 25.4,0.93146764 A 18.794697,17.442139 0 0 0 6.6414551,18.373252 18.794697,17.442139 0 0 0 25.4,35.815549 v -3.65527 A 17.721972,15.358758 0 0 1 7.6780843,16.801578 17.721972,15.358758 0 0 1 25.4,1.4428772 Z" /><path
       id="path30"
       style="display:inline;fill:#63c4c6;fill-opacity:1;stroke:#368081;stroke-width:0.264583;stroke-dasharray:none;stroke-opacity:1"
       d="M 25.4,1.1871724 A 17.721972,15.473015 0 0 0 7.6780843,16.660129 17.721972,15.473015 0 0 0 25.4,32.133087 V 28.95757 A 14.006763,12.429719 0 0 1 11.393103,16.527838 14.006763,12.429719 0 0 1 25.4,4.0981058 Z" /></g></svg>
