<?xml version="1.0" encoding="UTF-8" standalone="no"?>
<!-- Created with Inkscape (http://www.inkscape.org/) -->

<svg
   width="192"
   height="192"
   viewBox="0 0 50.800001 50.8"
   version="1.1"
   id="svg1"
   xml:space="preserve"
   sodipodi:docname="kat.svg"
   inkscape:version="1.4.3 (0d15f75042, 2025-12-25)"
   xmlns:inkscape="http://www.inkscape.org/namespaces/inkscape"
   xmlns:sodipodi="http://sodipodi.sourceforge.net/DTD/sodipodi-0.dtd"
   xmlns="http://www.w3.org/2000/svg"
   xmlns:svg="http://www.w3.org/2000/svg"><sodipodi:namedview
     id="namedview1"
     pagecolor="#505050"
     bordercolor="#eeeeee"
     borderopacity="1"
     inkscape:showpageshadow="0"
     inkscape:pageopacity="0"
     inkscape:pagecheckerboard="0"
     inkscape:deskcolor="#505050"
     inkscape:document-units="mm"
     showgrid="true"
     inkscape:zoom="2.8284271"
     inkscape:cx="-7.6013979"
     inkscape:cy="76.013979"
     inkscape:window-width="1920"
     inkscape:window-height="988"
     inkscape:window-x="0"
     inkscape:window-y="0"
     inkscape:window-maximized="1"
     inkscape:current-layer="svg1"><inkscape:grid
       id="grid1"
       units="px"
       originx="0"
       originy="0"
       spacingx="0.26458334"
       spacingy="0.26458334"
       empcolor="#0099e5"
       empopacity="0.30196078"
       color="#0099e5"
       opacity="0.14901961"
       empspacing="1"
       enabled="true"
       visible="true" /></sodipodi:namedview><defs
     id="defs1" /><g
     inkscape:label="Layer 1"
     inkscape:groupmode="layer"
     id="layer1"
     style="display:inline"><path
       id="path29"
       style="display:inline;fill:#63c4c6;fill-opacity:1;stroke:#368081;stroke-width:0.263605;stroke-dasharray:none;stroke-opacity:1"
       d="M 25.4,3.9827962 A 18.794697,17.442139 0 0 0 6.6414551,21.424581 18.794697,17.442139 0 0 0 25.4,38.866878 v -3.65527 A 17.721972,15.358758 0 0 1 7.6780843,19.852907 17.721972,15.358758 0 0 1 25.4,4.4942058 Z" /><path
       id="path30"
       style="display:inline;fill:#63c4c6;fill-opacity:1;stroke:#368081;stroke-width:0.26458333;stroke-dasharray:none;stroke-opacity:1"
       d="M 25.4 4.238501 A 17.721972 15.473015 0 0 0 7.6780843 19.711458 A 17.721972 15.473015 0 0 0 25.4 35.184416 L 25.4 32.008899 A 14.006763 12.429719 0 0 1 11.393103 19.579167 A 14.006763 12.429719 0 0 1 25.4 7.1494344 L 25.4 4.238501 z " /></g></svg>
