<?xml version="1.0" encoding="UTF-8" standalone="no"?>
<!-- Created with Inkscape (http://www.inkscape.org/) -->

<svg
   width="540"
   height="96"
   viewBox="0 0 142.875 25.4"
   version="1.1"
   id="svg1"
   xml:space="preserve"
   inkscape:export-filename="../assets/game/soul/gauge_back.png"
   inkscape:export-xdpi="96"
   inkscape:export-ydpi="96"
   inkscape:version="1.4.3 (0d15f75042, 2025-12-25)"
   sodipodi:docname="gauge.svg"
   xmlns:inkscape="http://www.inkscape.org/namespaces/inkscape"
   xmlns:sodipodi="http://sodipodi.sourceforge.net/DTD/sodipodi-0.dtd"
   xmlns:xlink="http://www.w3.org/1999/xlink"
   xmlns="http://www.w3.org/2000/svg"
   xmlns:svg="http://www.w3.org/2000/svg"><sodipodi:namedview
     id="namedview1"
     pagecolor="#505050"
     bordercolor="#eeeeee"
     borderopacity="1"
     inkscape:showpageshadow="0"
     inkscape:pageopacity="0"
     inkscape:pagecheckerboard="0"
     inkscape:deskcolor="#505050"
     inkscape:document-units="mm"
     showgrid="true"
     inkscape:zoom="5.6872052"
     inkscape:cx="353.8645"
     inkscape:cy="140.66663"
     inkscape:window-width="1920"
     inkscape:window-height="988"
     inkscape:window-x="0"
     inkscape:window-y="0"
     inkscape:window-maximized="1"
     inkscape:current-layer="layer1"><inkscape:grid
       id="grid1"
       units="px"
       originx="0"
       originy="0"
       spacingx="0.26458333"
       spacingy="0.26458333"
       empcolor="#0099e5"
       empopacity="0.30196078"
       color="#0099e5"
       opacity="0.14901961"
       empspacing="1"
       enabled="true"
       visible="true" /></sodipodi:namedview><defs
     id="defs1"><linearGradient
       id="linearGradient5"
       inkscape:collect="always"><stop
         style="stop-color:#fffe01;stop-opacity:1;"
         offset="0"
         id="stop5" /><stop
         style="stop-color:#ffffff;stop-opacity:1;"
         offset="1"
         id="stop6" /></linearGradient><rect
       x="467.99998"
       y="0"
       width="87.999995"
       height="71.999996"
       id="rect4" /><rect
       x="491.99997"
       y="35.999998"
       width="79.999996"
       height="75.999996"
       id="rect3" /><rect
       x="471.99998"
       y="15.999999"
       width="67.999996"
       height="67.999996"
       id="rect2" /><linearGradient
       inkscape:collect="always"
       xlink:href="#linearGradient5"
       id="linearGradient6"
       x1="94.985405"
       y1="12.699999"
       x2="121.44374"
       y2="12.699999"
       gradientUnits="userSpaceOnUse" /></defs><rect
     style="fill:#000000;fill-opacity:0;stroke:none;stroke-width:1.5875;stroke-linecap:round;stroke-linejoin:round;stroke-dasharray:none;stroke-opacity:1;paint-order:stroke markers fill"
     id="rect49"
     width="142.875"
     height="25.399998"
     x="-3.0079641e-14"
     y="25.4"
     inkscape:export-filename="gauge_front.png"
     inkscape:export-xdpi="96"
     inkscape:export-ydpi="96" /><g
     inkscape:label="Layer 1"
     inkscape:groupmode="layer"
     id="layer1"
     style="display:inline"><path
       style="display:inline;fill:#690000;fill-opacity:1;stroke:#000000;stroke-width:1.5875;stroke-dasharray:none;paint-order:normal"
       d="M 1.0583333,14.816666 V 11.112499 H 94.19166 V 7.408333 l 28.04584,-10e-8 0,10.5833331 -121.1791667,-10e-7 z"
       id="path1"
       sodipodi:nodetypes="cccccccc" /><path
       id="path49"
       style="fill:none;fill-opacity:1;stroke:#370000;stroke-width:1.05833;stroke-linecap:round;stroke-linejoin:round;stroke-dasharray:none;stroke-opacity:1;paint-order:normal"
       d="m 117.73957,43.127081 1e-5,-10.054165 h 2.11666 v 10.054165 z m -4.23333,0 V 33.072916 h 2.11666 v 10.054165 z m -4.23333,0 1e-5,-10.054165 h 2.11666 v 10.054165 z m -4.23333,0 V 33.072916 h 2.11666 v 10.054165 z m -4.23334,-10e-7 1e-5,-10.054165 h 2.11666 V 43.12708 Z m -4.233329,0 10e-7,-10.054165 h 2.116666 V 43.12708 Z m -4.233333,10e-7 10e-7,-6.349999 h 2.116666 v 6.349999 z m -4.233333,-10e-7 v -6.349999 h 2.116667 v 6.349999 z m -4.233333,10e-7 v -6.349999 h 2.116667 v 6.349999 z m -4.233333,-10e-7 v -6.349999 h 2.116667 v 6.349999 z m -4.233333,10e-7 10e-7,-6.349999 h 2.116666 v 6.349999 z m -4.233333,-10e-7 v -6.349999 h 2.116667 v 6.349999 z m -4.233333,10e-7 10e-7,-6.349999 h 2.116666 v 6.349999 z m -4.233333,-10e-7 v -6.349999 h 2.116667 v 6.349999 z m -4.233333,10e-7 v -6.349999 h 2.116667 v 6.349999 z m -4.233333,-10e-7 v -6.349999 h 2.116667 v 6.349999 z m -4.233334,10e-7 10e-7,-6.349999 h 2.116666 v 6.349999 z m -4.233333,-10e-7 v -6.349999 h 2.116667 v 6.349999 z m -4.233333,10e-7 1e-6,-6.349999 h 2.116666 v 6.349999 z m -4.233333,-10e-7 v -6.349999 h 2.116667 v 6.349999 z m -4.233333,10e-7 v -6.349999 h 2.116667 v 6.349999 z m -4.233333,-10e-7 v -6.349999 h 2.116667 v 6.349999 z m -4.233334,10e-7 10e-7,-6.349999 h 2.116666 v 6.349999 z m -4.233333,-10e-7 v -6.349999 h 2.116667 v 6.349999 z m -4.233333,10e-7 10e-7,-6.349999 h 2.116666 v 6.349999 z m -4.233333,-10e-7 v -6.349999 h 2.116667 v 6.349999 z m -4.2333329,10e-7 2e-7,-6.349999 h 2.1166665 v 6.349999 z m -4.2333331,-10e-7 2e-7,-6.349999 h 2.1166665 v 6.349999 z m 4.2333331,10e-7 2e-7,-6.349999 h 2.1166665 v 6.349999 z m -4.2333331,-10e-7 2e-7,-6.349999 h 2.1166665 v 6.349999 z" /><path
       style="fill:none;fill-opacity:1;stroke:#000000;stroke-width:1.5875;stroke-dasharray:none;paint-order:stroke markers fill"
       d="m 1.058335,40.216665 v -3.704167 h 93.133327 v -3.704166 l 28.045828,0 0,10.583332 -121.179155,0 z"
       id="path2"
       sodipodi:nodetypes="cccccccc"
       inkscape:export-filename="../assets/game/soul/gauge_front.png"
       inkscape:export-xdpi="96"
       inkscape:export-ydpi="96" /><rect
       style="fill:#000000;fill-opacity:1;stroke:none;stroke-width:6.27157;stroke-linecap:round;stroke-linejoin:round;stroke-dasharray:none;stroke-opacity:1;paint-order:stroke markers fill"
       id="rect8"
       width="15.081264"
       height="12.170833"
       x="121.97291"
       y="6.614583" /><path
       id="path8"
       style="display:inline;fill:#ffffff;fill-opacity:1;stroke:#000000;stroke-width:3.175;stroke-linecap:round;stroke-linejoin:round;stroke-dasharray:none;stroke-opacity:1;paint-order:stroke markers fill"
       d="m 125.83451,19.785398 c 0.0459,-0.03843 0.37552,-0.304325 0.73235,-0.590871 0.86419,-0.693977 1.32806,-1.163341 2.12184,-2.146971 0.68109,-0.843993 1.57412,-2.195323 1.80984,-2.738618 0.21616,-0.498231 0.1824,-0.730304 -0.16594,-1.140693 -0.10209,-0.120323 -0.21241,-0.295381 -0.31868,-0.505875 -0.29482,-0.584011 -0.48653,-1.237119 -0.66214,-2.255616 -0.129,-0.7484201 -0.21236,-1.0902411 -0.32036,-1.3141741 -0.13658,-0.283222 -0.28778,-0.348335 -0.60073,-0.258734 -0.10317,0.02955 -0.19836,0.04722 -0.21156,0.0393 -0.0888,-0.05338 0.0985,-0.327865 0.59405,-0.870464 0.46972,-0.514386 0.74383,-0.858629 1.10036,-1.381851 0.34857,-0.511538 0.55049,-0.852373 0.77662,-1.310962 0.34442,-0.69847 0.4675,-1.121719 0.43989,-1.512775 -0.0124,-0.180586 -0.008,-0.23901 0.0257,-0.302036 0.17035,-0.320593 0.77611,-0.37128 1.39609,-0.116816 0.37742,0.154912 0.92658,0.568195 1.03837,0.781449 0.0942,0.17953 0.0546,0.387244 -0.14803,0.777431 -0.0566,0.108942 -0.28104,0.509488 -0.49885,0.890096 -0.21779,0.380604 -0.39237,0.695529 -0.38795,0.699827 0.005,0.0044 0.37044,-0.0865 0.8134,-0.201766 1.30302,-0.339083 1.33835,-0.345855 1.81022,-0.347125 0.46863,-0.0012 0.61526,0.03127 1.00954,0.22398 0.3351,0.163789 0.8997,0.543067 1.10652,0.743336 0.57104,0.552903 0.52975,1.027193 -0.26487,3.042775 -0.47404,1.2023711 -0.59378,1.6108441 -0.59633,2.0342331 -0.002,0.261554 0.0575,0.423668 0.21742,0.595866 0.24953,0.268799 0.25476,0.567435 0.0189,1.077484 -0.0394,0.08528 -0.20495,0.382603 -0.3678,0.660731 -0.28427,0.485514 -0.39821,0.719245 -0.39821,0.81689 0,0.121181 0.13163,0.123996 0.42663,0.009 0.33157,-0.12919 0.58927,-0.376108 0.62604,-0.599859 0.0275,-0.167948 0.23101,-0.282673 0.57583,-0.324748 0.47386,-0.05782 0.92245,0.112872 1.33783,0.50908 0.3478,0.331739 0.56236,0.709773 0.65728,1.158124 0.0958,0.452487 0.3877,0.945357 0.90517,1.528382 0.51309,0.578098 0.5889,0.869345 0.30499,1.171669 -0.20753,0.220992 -0.69549,0.414573 -1.50085,0.595437 -1.66037,0.372874 -3.71905,0.508257 -4.71952,0.31037 -1.35012,-0.267047 -1.89981,-0.934445 -2.04756,-2.486025 -0.0139,-0.149798 -0.0274,-0.550917 -0.0291,-0.891373 -0.002,-0.340457 -0.0108,-0.779618 -0.0192,-0.97592 l -0.0159,-0.356906 -0.70295,0.914018 c -1.02184,1.328691 -2.01716,2.493337 -2.42645,2.83923 -0.50425,0.426148 -1.23291,0.816701 -1.84179,0.987187 -0.13288,0.0372 -1.58698,0.29407 -1.66474,0.29407 -0.0108,0 0.0186,-0.03143 0.0647,-0.06988 z m 10.71842,-1.77348 c 0.80488,-0.113173 1.69337,-0.280347 1.90181,-0.357846 0.0577,-0.02147 0.0699,-0.04102 0.0699,-0.111818 0,-0.11513 -0.10456,-0.391489 -0.26795,-0.707757 -0.12205,-0.23641 -0.75922,-1.354548 -0.78756,-1.382129 -0.0501,-0.04882 -0.58989,0.275391 -1.1834,0.710851 -0.76434,0.5608 -1.39315,0.752537 -1.96949,0.600546 -0.30228,-0.07971 -0.49833,-0.06118 -0.59871,0.0566 -0.11152,0.130786 0.0189,0.472194 0.30172,0.789929 0.23026,0.258734 0.40544,0.366691 0.70804,0.436381 0.35778,0.08239 1.09178,0.0684 1.82557,-0.03477 z m -2.1446,-3.195252 c 0.13349,-0.08824 0.48707,-0.555291 0.61878,-0.817232 0.14494,-0.288114 0.19827,-0.51073 0.18407,-0.767573 -0.0139,-0.261917 -0.0871,-0.422767 -0.25978,-0.576178 -0.18553,-0.164713 -0.34377,-0.21624 -0.66283,-0.215826 -0.2245,2.86e-4 -0.27236,0.0084 -0.40707,0.06935 -0.39111,0.176834 -0.59411,0.550238 -0.56621,1.041446 0.0237,0.416495 0.18703,0.74546 0.55065,1.108843 0.21182,0.21168 0.22292,0.218964 0.33405,0.218949 0.0806,-9e-6 0.14277,-0.01849 0.20834,-0.06178 z m -2.96641,-3.122003 c 0.30494,-0.1689 0.46387,-0.556235 0.35589,-0.867361 -0.12854,-0.370268 -0.52158,-0.604258 -0.76872,-0.457598 -0.19124,0.113489 -0.28795,0.551695 -0.21106,0.95646 0.0772,0.406258 0.30876,0.543039 0.62389,0.368499 z m 2.50318,-0.37408 c 0.35763,-0.116168 0.53274,-0.21031 0.68764,-0.369715 0.45193,-0.465046 0.32229,-1.0466401 -0.23377,-1.0487431 -0.3943,-0.0017 -0.83712,0.2757861 -1.00273,0.6278681 -0.0709,0.150586 -0.14881,0.603843 -0.12359,0.718726 0.0465,0.212362 0.19203,0.227904 0.67242,0.07187 z m -2.75565,-1.8511431 c 0.6494,-0.31399 0.83033,-0.732024 0.4425,-1.02232 -0.17438,-0.130515 -0.4193,-0.190794 -0.77806,-0.191503 -0.27549,-3.99e-4 -0.31775,0.0054 -0.43252,0.0613 -0.18045,0.08779 -0.22324,0.177077 -0.20771,0.433307 0.0124,0.211748 0.11307,0.56124 0.20123,0.702033 0.14045,0.224124 0.33753,0.228497 0.77456,0.01716 z m 3.39682,-0.833865 c 0.43523,-0.09034 0.72352,-0.359008 0.75169,-0.700504 0.0108,-0.131914 0.003,-0.178296 -0.0503,-0.289948 -0.0739,-0.155326 -0.24036,-0.323119 -0.39091,-0.394047 -0.39258,-0.184951 -1.00421,-0.04227 -1.38472,0.323027 -0.078,0.07491 -0.16348,0.180753 -0.1899,0.235223 -0.0606,0.125065 -0.0804,0.359798 -0.0385,0.458239 0.0404,0.09497 0.18245,0.216413 0.32472,0.277662 0.2515,0.108265 0.69441,0.149196 0.97787,0.09035 z m -9.22791,0.210335 c -0.13891,-0.02071 -0.35229,-0.08681 -0.4739,-0.146788 -0.49383,-0.243539 -1.09119,-1.096479 -1.0042,-1.433825 0.0252,-0.09758 0.11292,-0.101762 0.31572,-0.0151 0.39488,0.16867 0.85431,0.05111 1.61374,-0.412949 0.91315,-0.557997 1.24026,-0.628915 1.73998,-0.377247 0.22777,0.114708 0.70683,0.438684 0.89304,0.603946 0.24427,0.216791 0.25313,0.296068 0.0532,0.475475 -0.32398,0.29064 -1.39484,0.893201 -1.97466,1.111127 -0.40554,0.152422 -0.89713,0.235016 -1.16286,0.195374 z m -1.34658,8.7701851 c -0.36866,-0.218759 -0.84059,-1.090744 -0.84514,-1.561549 -0.003,-0.401674 0.0353,-0.457705 1.26253,-1.806849 0.41463,-0.455781 0.67352,-0.87557 0.62143,-1.007648 -0.0504,-0.12779 -0.22722,-0.09848 -0.6972,0.115611 -0.46033,0.209681 -0.6672,0.238804 -0.93028,0.130966 -0.15376,-0.06301 -0.56227,-0.438807 -0.79598,-0.73214 -0.17239,-0.216373 -0.36,-0.617239 -0.36,-0.769199 0,-0.299978 0.30099,-0.511416 0.72804,-0.511416 0.54197,0 1.39967,-0.309408 2.40134,-0.866253 0.36382,-0.202257 0.76454,-0.40316 0.89048,-0.446454 0.35361,-0.121558 0.75373,-0.104592 1.08043,0.04582 0.3037,0.139817 0.87456,0.487083 0.92104,0.560281 0.0399,0.06274 -0.22065,0.432649 -0.98587,1.399902 -0.71523,0.90408 -1.09627,1.451788 -1.29635,1.863375 -0.14617,0.300651 -0.14787,0.429175 -0.006,0.45573 0.1157,0.02166 0.31428,-0.15997 0.659,-0.602569 0.29982,-0.384953 0.77391,-0.757408 1.0217,-0.802645 0.41641,-0.07602 0.98723,0.419353 1.38821,1.204743 0.23664,0.463491 0.24568,0.496988 0.24568,0.909766 0,0.404478 -0.009,0.43926 -0.1568,0.619013 -0.45459,0.552161 -0.97284,0.454862 -1.36036,-0.255407 -0.30084,-0.551369 -0.47617,-0.463039 -1.59423,0.803127 -1.06645,1.207726 -1.67874,1.558036 -2.19146,1.253801 z" /><rect
       style="display:inline;fill:#000000;fill-opacity:1;stroke:none;stroke-width:0.529167;paint-order:stroke markers fill"
       id="rect6"
       width="12.699999"
       height="2.645833"
       x="81.491661"
       y="33.337498" /><text
       xml:space="preserve"
       style="font-style:normal;font-variant:normal;font-weight:normal;font-stretch:normal;font-size:5.75184px;line-height:24.1577px;font-family:DFPKanTeiRyu-XB;-inkscape-font-specification:DFPKanTeiRyu-XB;writing-mode:lr-tb;direction:ltr;fill:#ffffff;fill-opacity:1;stroke:#000000;stroke-width:1.8488;stroke-linecap:round;stroke-linejoin:round;stroke-dasharray:none;stroke-opacity:1;paint-order:stroke markers fill"
       x="80.811378"
       y="35.033192"
       id="text49"
       transform="scale(0.98118221,1.0191787)"><tspan
         sodipodi:role="line"
         id="tspan49"
         style="fill:#ffffff;fill-opacity:1;stroke:#000000;stroke-width:1.8488;stroke-dasharray:none;stroke-opacity:1;paint-order:stroke markers fill"
         x="80.811378"
         y="35.033192">ノルマ</tspan></text><rect
       style="fill:#fffe02;fill-opacity:1;stroke:none;stroke-width:0.529167;paint-order:stroke markers fill"
       id="rect1"
       width="93.133331"
       height="5.2916665"
       x="1.8520832"
       y="11.906249"
       inkscape:export-filename="../assets/game/soul/gauge_fill_1.png"
       inkscape:export-xdpi="96"
       inkscape:export-ydpi="96" /><rect
       style="fill:url(#linearGradient6);fill-opacity:1;stroke:none;stroke-width:0.529167;paint-order:stroke markers fill"
       id="rect5"
       width="26.458338"
       height="8.9958334"
       x="94.985405"
       y="8.2020826"
       inkscape:export-filename="../assets/game/soul/gauge_fill_0.png"
       inkscape:export-xdpi="96"
       inkscape:export-ydpi="96" /></g></svg>
