<?xml version="1.0" encoding="UTF-8" standalone="no"?>
<!-- Created with Inkscape (http://www.inkscape.org/) -->

<svg
   width="16"
   height="16"
   viewBox="0 0 4.2333333 4.2333333"
   version="1.1"
   id="svg1"
   inkscape:version="1.4.3 (0d15f75042, 2025-12-25)"
   sodipodi:docname="TJA.svg"
   xmlns:inkscape="http://www.inkscape.org/namespaces/inkscape"
   xmlns:sodipodi="http://sodipodi.sourceforge.net/DTD/sodipodi-0.dtd"
   xmlns="http://www.w3.org/2000/svg"
   xmlns:svg="http://www.w3.org/2000/svg">
  <sodipodi:namedview
     id="namedview1"
     pagecolor="#505050"
     bordercolor="#eeeeee"
     borderopacity="1"
     inkscape:showpageshadow="0"
     inkscape:pageopacity="0"
     inkscape:pagecheckerboard="0"
     inkscape:deskcolor="#505050"
     inkscape:document-units="mm"
     showgrid="true"
     inkscape:zoom="22.748821"
     inkscape:cx="2.0001036"
     inkscape:cy="7.2970813"
     inkscape:window-width="1920"
     inkscape:window-height="988"
     inkscape:window-x="0"
     inkscape:window-y="0"
     inkscape:window-maximized="1"
     inkscape:current-layer="layer1">
    <inkscape:grid
       id="grid1"
       units="px"
       originx="0"
       originy="0"
       spacingx="0.26458333"
       spacingy="0.26458333"
       empcolor="#0099e5"
       empopacity="0.30196078"
       color="#0099e5"
       opacity="0.14901961"
       empspacing="5"
       enabled="true"
       visible="true" />
  </sodipodi:namedview>
  <defs
     id="defs1" />
  <g
     inkscape:label="Layer 1"
     inkscape:groupmode="layer"
     id="layer1">
    <path
       id="path1"
       style="fill:#e0e0e0;fill-opacity:1;stroke-width:0.282001"
       d="M 2.1166667 0.26458333 A 1.8520832 1.8520832 0 0 0 0.26458333 2.1166667 A 1.8520832 1.8520832 0 0 0 2.1166667 3.96875 A 1.8520832 1.8520832 0 0 0 3.96875 2.1166667 A 1.8520832 1.8520832 0 0 0 2.1166667 0.26458333 z M 2.1166667 0.52916667 A 1.5874999 1.5874999 0 0 1 3.7041667 2.1166667 A 1.5874999 1.5874999 0 0 1 2.1166667 3.7041667 A 1.5874999 1.5874999 0 0 1 0.52916667 2.1166667 A 1.5874999 1.5874999 0 0 1 2.1166667 0.52916667 z " />
    <path
       id="path3"
       style="fill:#e0e0e0;fill-opacity:1;stroke-width:0.282001"
       d="M 2.1166667 0.79375 A 1.3229166 1.3229166 0 0 0 0.79375 2.1166667 A 1.3229166 1.3229166 0 0 0 2.1166667 3.4395833 A 1.3229166 1.3229166 0 0 0 3.4395833 2.1166667 A 1.3229166 1.3229166 0 0 0 2.1166667 0.79375 z M 1.5875 1.5875 C 1.5875 1.5875 1.8520833 1.5875 1.8520833 1.8520833 L 1.8520833 2.38125 C 1.8520833 2.38125 1.8520833 2.6458333 1.5875 2.6458333 C 1.3229167 2.6458333 1.3229167 2.38125 1.3229167 2.38125 L 1.3229167 1.8520833 C 1.3229167 1.5875 1.5875 1.5875 1.5875 1.5875 z M 2.6458333 1.5875 C 2.6458333 1.5875 2.9104167 1.5875 2.9104167 1.8520833 L 2.9104167 2.38125 C 2.9104167 2.38125 2.9104166 2.6458333 2.6458333 2.6458333 C 2.38125 2.6458333 2.38125 2.38125 2.38125 2.38125 L 2.38125 1.8520833 C 2.38125 1.5875 2.6458333 1.5875 2.6458333 1.5875 z " />
  </g>
</svg>
