<?xml version="1.0" encoding="UTF-8" standalone="no"?>
<!-- Created with Inkscape (http://www.inkscape.org/) -->

<svg
   width="480"
   height="276"
   viewBox="0 0 127 73.025"
   version="1.1"
   id="svg1"
   xml:space="preserve"
   inkscape:version="1.4.3 (0d15f75042, 2025-12-25)"
   sodipodi:docname="hole.svg"
   xmlns:inkscape="http://www.inkscape.org/namespaces/inkscape"
   xmlns:sodipodi="http://sodipodi.sourceforge.net/DTD/sodipodi-0.dtd"
   xmlns="http://www.w3.org/2000/svg"
   xmlns:svg="http://www.w3.org/2000/svg"><sodipodi:namedview
     id="namedview1"
     pagecolor="#505050"
     bordercolor="#eeeeee"
     borderopacity="1"
     inkscape:showpageshadow="0"
     inkscape:pageopacity="0"
     inkscape:pagecheckerboard="0"
     inkscape:deskcolor="#505050"
     inkscape:document-units="mm"
     showgrid="true"
     inkscape:zoom="2.0107307"
     inkscape:cx="224.54524"
     inkscape:cy="157.1568"
     inkscape:window-width="1920"
     inkscape:window-height="988"
     inkscape:window-x="0"
     inkscape:window-y="0"
     inkscape:window-maximized="1"
     inkscape:current-layer="layer1"><inkscape:grid
       id="grid1"
       units="px"
       originx="0"
       originy="0"
       spacingx="0.26458333"
       spacingy="0.26458333"
       empcolor="#0099e5"
       empopacity="0.30196078"
       color="#0099e5"
       opacity="0.14901961"
       empspacing="1"
       enabled="true"
       visible="true" /></sodipodi:namedview><defs
     id="defs1" /><g
     inkscape:label="Layer 1"
     inkscape:groupmode="layer"
     id="layer1"><path
       id="rect1"
       style="display:inline;fill:#dc1500;fill-opacity:1;stroke:#debeae;stroke-width:0"
       d="M 0 0 L 0 73.025 L 127 73.025 L 127 0 L 0 0 z M 63.5 14.816667 A 45.508331 8.9958324 0 0 1 109.00833 23.8125 A 45.508331 8.9958324 0 0 1 63.5 32.808333 A 45.508331 8.9958324 0 0 1 17.991667 23.8125 A 45.508331 8.9958324 0 0 1 63.5 14.816667 z " /><path
       id="path1-2"
       style="display:inline;fill:#440000;fill-opacity:1;stroke:#debeae;stroke-width:0"
       d="M 63.5,14.816667 A 45.508331,8.9958324 0 0 0 17.991667,23.8125 45.508331,8.9958324 0 0 0 18.070732,24.341667 45.508331,8.9958324 0 0 1 63.5,15.875 45.508331,8.9958324 0 0 1 108.92927,24.341667 45.508331,8.9958324 0 0 0 109.00833,23.8125 45.508331,8.9958324 0 0 0 63.5,14.816667 Z" /></g></svg>
